HIERARCHY
ROOT Hips
{
	OFFSET 0.00000 0.00000 0.00000
	CHANNELS 6 Xposition Yposition Zposition Zrotation Yrotation Xrotation 
	JOINT LHipJoint
	{
		OFFSET 0 0 0
		CHANNELS 3 Zrotation Yrotation Xrotation
		JOINT LeftUpLeg
		{
			OFFSET 1.70593 -1.62653 0.87602
			CHANNELS 3 Zrotation Yrotation Xrotation
			JOINT LeftLeg
			{
				OFFSET 2.32330 -6.38322 0.00000
				CHANNELS 3 Zrotation Yrotation Xrotation
				JOINT LeftFoot
				{
					OFFSET 2.45016 -6.73177 0.00000
					CHANNELS 3 Zrotation Yrotation Xrotation
					JOINT LeftToeBase
					{
						OFFSET 0.13029 -0.35798 1.96980
						CHANNELS 3 Zrotation Yrotation Xrotation
						End Site
						{
							OFFSET 0.00000 -0.00000 1.01270
						}
					}
				}
			}
		}
	}
	JOINT RHipJoint
	{
		OFFSET 0 0 0
		CHANNELS 3 Zrotation Yrotation Xrotation
		JOINT RightUpLeg
		{
			OFFSET -1.80599 -1.62652 0.87602
			CHANNELS 3 Zrotation Yrotation Xrotation
			JOINT RightLeg
			{
				OFFSET -2.45375 -6.74162 0.00000
				CHANNELS 3 Zrotation Yrotation Xrotation
				JOINT RightFoot
				{
					OFFSET -2.45828 -6.75406 0.00000
					CHANNELS 3 Zrotation Yrotation Xrotation
					JOINT RightToeBase
					{
						OFFSET -0.13801 -0.37917 1.88456
						CHANNELS 3 Zrotation Yrotation Xrotation
						End Site
						{
							OFFSET -0.00000 -0.00000 0.97281
						}
					}
				}
			}
		}
	}
	JOINT LowerBack
	{
		OFFSET 0 0 0
		CHANNELS 3 Zrotation Yrotation Xrotation
		JOINT Spine
		{
			OFFSET 0.01003 2.00576 -0.14267
			CHANNELS 3 Zrotation Yrotation Xrotation
			JOINT Spine1
			{
				OFFSET 0.00908 2.01191 0.01660
				CHANNELS 3 Zrotation Yrotation Xrotation
				JOINT Neck
				{
					OFFSET 0 0 0
					CHANNELS 3 Zrotation Yrotation Xrotation
					JOINT Neck1
					{
						OFFSET -0.05849 1.60301 0.18934
						CHANNELS 3 Zrotation Yrotation Xrotation
						JOINT Head
						{
							OFFSET 0.01775 1.59435 -0.07960
							CHANNELS 3 Zrotation Yrotation Xrotation
							End Site
							{
								OFFSET 0.01210 1.70732 -0.05248
							}
						}
					}
				}
				JOINT LeftShoulder
				{
					OFFSET 0 0 0
					CHANNELS 3 Zrotation Yrotation Xrotation
					JOINT LeftArm
					{
						OFFSET 3.15315 1.26460 0.30667
						CHANNELS 3 Zrotation Yrotation Xrotation
						JOINT LeftForeArm
						{
							OFFSET 4.97694 -0.00000 -0.00000
							CHANNELS 3 Zrotation Yrotation Xrotation
							JOINT LeftHand
							{
								OFFSET 3.14391 -0.00000 -0.00000
								CHANNELS 3 Zrotation Yrotation Xrotation
								JOINT LeftFingerBase
								{
									OFFSET 0 0 0
									CHANNELS 3 Zrotation Yrotation Xrotation
									JOINT LeftHandIndex1
									{
										OFFSET 0.59358 -0.00000 -0.00000
										CHANNELS 3 Zrotation Yrotation Xrotation
										End Site
										{
											OFFSET 0.47856 -0.00000 -0.00000
										}
									}
								}
								JOINT LThumb
								{
									OFFSET 0 0 0
									CHANNELS 3 Zrotation Yrotation Xrotation
									End Site
									{
										OFFSET 0.48587 -0.00000 0.48587
									}
								}
							}
						}
					}
				}
				JOINT RightShoulder
				{
					OFFSET 0 0 0
					CHANNELS 3 Zrotation Yrotation Xrotation
					JOINT RightArm
					{
						OFFSET -3.25568 1.35581 0.18982
						CHANNELS 3 Zrotation Yrotation Xrotation
						JOINT RightForeArm
						{
							OFFSET -4.90473 -0.00000 0.00000
							CHANNELS 3 Zrotation Yrotation Xrotation
							JOINT RightHand
							{
								OFFSET -3.21621 0.00006 -0.00004
								CHANNELS 3 Zrotation Yrotation Xrotation
								JOINT RightFingerBase
								{
									OFFSET 0 0 0
									CHANNELS 3 Zrotation Yrotation Xrotation
									JOINT RightHandIndex1
									{
										OFFSET -0.62353 -0.00000 -0.00000
										CHANNELS 3 Zrotation Yrotation Xrotation
										End Site
										{
											OFFSET -0.50270 -0.00000 -0.00000
										}
									}
								}
								JOINT RThumb
								{
									OFFSET 0 0 0
									CHANNELS 3 Zrotation Yrotation Xrotation
									End Site
									{
										OFFSET -0.51038 -0.00000 0.51038
									}
								}
							}
						}
					}
				}
			}
		}
	}
}
MOTION
Frames: 14
Frame Time: 0.0909091
0.00 0.00 0.00 0 0 0 0 0 0 -21 0 0 0 0 0 0 0 0 0 0 0 0 0 0 21 0 0 0 0 0 0 0 0 0 0 0 0 0 0 0 0 0 0 0 0 0 0 -16 0 0 21 0 0 11 0 0 0 -8 0 0 0 0 0 0 0 0 0 0 0 0 0 0 0 0 0 0 0 0 8 0 0 0 0 0 0 0 0 0 0 0 0 0 0 0 0 0
0.00 0.00 0.00 -7.1878 -14.9597 18.0245 0.0000 0.0000 0.0000 -6.5581 -7.8216 -68.8479 11.8052 18.3071 65.3700 0.5964 -5.3731 -13.7551 0.0073 0.5529 1.5194 0.0000 0.0000 0.0000 22.8909 4.4636 16.8595 -2.4852 -9.8109 28.3664 -1.0029 -5.5024 17.8880 -0.0775 1.7955 -4.9409 1.6372 8.5380 0.9821 -3.0679 11.3821 -6.3218 -4.7286 5.4917 -6.1983 -5.3033 -2.5747 -10.0694 6.5063 -3.4265 9.3921 2.6383 -1.4812 4.6666 0.0000 -0.0000 0.0000 -74.5630 36.7976 -31.6640 6.2922 -10.7486 -0.5925 -0.0000 -0.0000 24.4980 19.9482 -18.7302 -6.6476 -7.1250 0.0000 -0.0000 -5.3449 10.2132 4.3319 0.0000 -0.0000 0.0000 68.4106 18.3580 40.6286 -38.1474 46.9332 -17.0732 0.0000 -0.0000 -13.4318 -26.7926 -32.1187 15.0285 7.1250 -0.0000 -0.0000 6.6648 -64.9801 -3.2273
0.00 0.00 0.00 -5.9515 -13.8648 17.6147 0.0000 0.0000 0.0000 -11.3725 -7.4296 -59.3831 10.4494 17.6549 60.9801 0.9098 -8.5016 -17.1542 0.0037 0.3908 1.0739 0.0000 0.0000 0.0000 22.6464 5.4769 7.5161 -4.8948 -13.2643 40.3662 -0.0012 1.2153 -1.0108 -0.4928 4.5011 -12.4910 -1.5013 8.0291 -2.2252 -1.3828 10.7118 -3.4739 -0.5860 5.3805 -2.3554 -6.3640 -2.5684 -10.6132 6.0124 -3.1215 8.0579 2.6736 -1.3925 4.3374 -0.0000 -0.0000 0.0000 -80.6102 18.6199 -35.6126 5.1562 -8.8477 -0.3992 -0.0000 -0.0000 32.6071 23.5573 -14.4921 -6.2268 -7.1250 0.0000 -0.0000 -2.6767 14.2453 1.9379 -0.0000 -0.0000 0.0000 71.0809 10.6124 38.2116 -32.7100 43.1059 -13.2235 0.0000 -0.0000 -11.7090 -26.1996 -35.7230 16.0290 7.1250 -0.0000 -0.0000 10.3713 -68.4305 -5.8561
0.00 0.00 0.00 -3.8815 -12.7872 16.1836 0.0000 0.0000 0.0000 -17.4960 -6.0219 -45.6179 7.7640 15.9429 51.7082 1.2330 -9.8502 -20.0029 0.0443 -1.3581 -3.7348 0.0000 0.0000 0.0000 21.2870 5.0949 -5.8537 -8.4258 -16.4237 54.0823 -1.2176 0.4348 -20.7291 -0.2778 -3.3900 9.3666 -1.0381 6.5611 -0.0786 -3.1383 8.6354 -4.7612 -2.9834 4.2831 -4.5474 -3.4756 -2.1329 -8.0049 6.3192 -3.0924 8.7776 2.3196 -1.3064 4.0841 0.0000 -0.0000 0.0000 -82.5214 5.8964 -7.0529 7.4471 -12.6527 -0.8268 -0.0000 -0.0000 14.9223 24.8501 -12.0393 -5.5177 -7.1250 0.0000 -0.0000 -1.6382 16.7567 1.0968 0.0000 -0.0000 0.0000 80.4642 -3.3749 39.0236 -25.2149 36.4228 -8.4172 0.0000 -0.0000 -6.6350 -25.6384 -34.0226 15.0315 7.1250 -0.0000 -0.0000 9.5622 -66.5729 -4.9916
0.00 0.00 0.00 2.5327 -8.4719 11.0818 0.0000 0.0000 0.0000 -28.2707 -2.2474 -16.3128 3.5949 11.6009 34.3342 0.4953 -13.5820 -14.7328 0.0508 1.4547 4.0008 0.0000 0.0000 0.0000 16.1949 12.8072 -35.7028 -11.1548 -18.0100 63.2831 -1.9545 9.3868 -25.0870 -1.5129 7.7677 -22.0109 -6.0802 0.9495 0.8939 -2.0925 0.9333 -4.7831 1.1712 0.6796 -5.5453 -2.8408 1.3072 -7.2135 6.8219 1.2005 12.9842 2.6664 0.8912 5.0147 -0.0000 -0.0000 0.0000 -85.8513 -23.8428 29.9769 16.0667 -25.6111 -3.6748 -0.0000 0.0000 -19.2662 26.1238 -13.3409 -6.4561 -7.1250 0.0000 -0.0000 -0.8471 15.1854 0.5957 -0.0000 -0.0000 0.0000 82.1846 -30.3839 33.2203 -15.8498 25.3166 -3.5815 0.0000 0.0000 6.5501 -19.1638 -31.6764 10.3423 7.1250 -0.0000 -0.0000 15.3919 -62.4863 -6.6240
0.00 0.00 0.00 5.4551 -3.2061 8.5755 0.0000 0.0000 0.0000 -30.2466 4.7483 4.7467 1.0120 6.4006 17.9514 -0.3454 -14.4446 -5.4817 0.0584 1.5595 4.2897 0.0000 0.0000 0.0000 11.4375 17.8957 -49.2464 -6.7330 -15.1029 47.8572 -1.3560 6.9649 -20.8234 -0.3599 3.8538 -10.6657 -8.1030 -3.0268 2.3052 -1.6569 -4.5208 -3.8270 3.0668 -1.9742 -4.8066 2.2685 2.5260 -10.1168 1.8878 2.7304 15.5468 0.4584 1.5996 6.3998 0.0000 0.0000 0.0000 -73.6127 -46.9961 36.8610 20.4054 -31.1277 -5.7395 -0.0000 0.0000 -27.6031 24.2992 -13.6295 -6.0730 -7.1250 0.0000 -0.0000 -2.1160 15.0889 1.4933 0.0000 0.0000 0.0000 78.2344 -44.0721 17.3042 -13.3505 21.7986 -2.5820 0.0000 0.0000 5.5452 -17.2846 -32.0146 9.3673 7.1250 -0.0000 -0.0000 17.7640 -62.3297 -7.6116
0.00 0.00 0.00 6.9286 1.6910 7.9696 0.0000 0.0000 0.0000 -28.3561 8.8887 24.4317 0.0000 -0.0000 -0.0000 -0.2916 -9.7029 1.5724 0.0018 0.2766 0.7599 0.0000 0.0000 0.0000 7.4769 17.8088 -56.1446 -3.2313 -11.0604 32.4839 -1.1782 5.1895 -19.4530 -0.3979 4.0499 -11.2171 -8.4436 -5.8436 2.6359 -0.4840 -8.2305 -3.1188 4.5629 -3.8587 -3.6248 2.8421 3.9419 -9.0076 -0.3787 4.9676 13.4943 -0.2094 2.5319 5.6366 0.0000 0.0000 0.0000 -53.2861 -62.7133 21.9332 19.6746 -30.2483 -5.3665 -0.0000 0.0000 -27.4375 20.9627 -13.1939 -4.9975 -7.1250 0.0000 -0.0000 -4.3851 15.9144 3.0236 0.0000 0.0000 0.0000 73.9687 -53.3791 -1.9470 -12.2509 20.1798 -2.1881 0.0000 -0.0000 -0.9373 -11.1741 -31.8681 5.9540 7.1250 -0.0000 -0.0000 24.2058 -60.6884 -9.5810
0.00 0.00 0.00 6.7039 7.1333 10.7148 0.0000 0.0000 0.0000 -25.3578 6.8231 32.7479 0.0000 0.0000 0.0000 0.0821 -2.3821 6.8373 0.0927 -1.9631 -5.4038 0.0000 0.0000 0.0000 1.2476 18.0731 -63.9953 -4.3190 -12.5733 37.7914 -1.3399 2.8156 -21.1403 -1.4954 7.7248 -21.8814 -4.8156 -7.4301 2.3966 1.2496 -10.0891 -2.5164 4.3390 -4.9129 -2.8887 4.6753 3.7919 -11.3702 -2.9416 4.7054 10.5295 -1.3047 2.2902 5.2116 0.0000 0.0000 0.0000 -25.1649 -68.1655 -4.7960 23.6499 -34.7918 -7.5058 -0.0000 0.0000 -32.6444 20.6034 -11.4696 -4.2752 -7.1250 0.0000 -0.0000 -4.5790 17.7728 2.9723 0.0000 0.0000 0.0000 77.7679 -55.0545 -37.5264 -9.1391 15.3819 -1.2368 0.0000 0.0000 18.0371 -10.2612 -31.8699 5.4599 7.1250 -0.0000 -0.0000 25.1562 -60.4729 -9.8551
0.00 0.00 0.00 5.6601 7.7497 13.8483 0.0000 0.0000 0.0000 -22.8952 7.3463 34.8553 0.0000 0.0000 0.0000 0.6909 13.3686 16.3817 0.0480 1.4146 3.8904 0.0000 0.0000 0.0000 0.4094 18.1008 -71.9716 -8.7060 -16.6148 55.0678 -0.2362 2.9234 -8.6370 -0.0309 1.1351 -3.1206 -2.4342 -7.0979 4.1889 4.4282 -9.4567 -3.5426 6.6806 -4.5408 -4.8765 5.4853 4.0721 -12.7845 -7.1621 5.2749 7.4153 -2.6960 2.3198 4.6449 0.0000 0.0000 0.0000 -24.7541 -63.7499 -7.2988 31.7497 -42.3467 -12.5719 -0.0000 0.0000 -34.9295 22.6367 -10.8590 -4.4920 -7.1250 0.0000 -0.0000 -3.1307 18.2489 1.9958 0.0000 0.0000 0.0000 75.7520 -54.4888 -30.6109 -10.0708 16.8502 -1.4954 0.0000 0.0000 7.6996 -9.3349 -31.2100 4.8686 7.1250 -0.0000 -0.0000 25.5396 -59.6680 -9.5221
0.00 0.00 0.00 4.2260 7.8282 14.9703 0.0000 0.0000 0.0000 -21.9863 6.5098 28.6855 0.5260 4.6479 12.9069 0.8301 25.2101 22.8329 0.0527 -1.4815 -4.0749 0.0000 0.0000 0.0000 4.6380 17.0610 -74.0442 -13.0248 -18.7911 69.2026 -0.3620 6.7996 -11.0192 -0.0031 0.3598 -0.9887 -0.4879 -5.8711 7.3063 5.5973 -7.5407 -3.3071 7.1410 -3.5641 -6.7390 3.2312 3.0675 -10.5609 -4.0634 3.8834 2.1943 -1.6739 1.8214 2.7237 -0.0000 -0.0000 0.0000 -36.1934 -62.2837 1.8961 35.2069 -44.9593 -14.9594 -0.0000 0.0000 -32.7785 23.1490 -13.3361 -5.6323 -7.1250 0.0000 -0.0000 -2.8874 15.5354 2.0111 -0.0000 -0.0000 0.0000 77.6395 -45.8447 -26.0096 -9.7220 16.3036 -1.3959 0.0000 0.0000 9.1376 -13.7083 -29.5214 6.8538 7.1250 -0.0000 -0.0000 19.6859 -59.1196 -6.9595
0.00 0.00 0.00 4.2301 6.0021 14.8561 0.0000 0.0000 0.0000 -25.0206 4.4101 17.6432 3.0666 10.8021 31.6154 0.2503 16.1207 13.7508 0.1006 -2.0454 -5.6312 0.0000 0.0000 0.0000 6.4224 18.3231 -70.5801 -14.6493 -19.2993 74.1781 -0.7415 10.7114 -16.0288 -0.0054 0.4754 -1.3064 -0.8138 -4.3674 8.0927 5.8447 -5.5389 -2.7374 7.4109 -2.5578 -6.7620 4.3610 2.6537 -11.7167 -7.8712 3.5064 4.7391 -2.8872 1.4387 3.5372 0.0000 -0.0000 0.0000 -55.0213 -56.1239 18.2772 37.1980 -46.3194 -16.3831 -0.0000 0.0000 -36.3859 26.1424 -11.8876 -5.7732 -7.1250 0.0000 -0.0000 -0.7306 16.7833 0.4885 0.0000 -0.0000 0.0000 78.1839 -35.3601 -22.0256 -9.7522 16.3510 -1.4044 0.0000 0.0000 9.4561 -15.6321 -29.6716 7.8861 7.1250 -0.0000 -0.0000 17.7636 -59.7018 -6.5000
0.00 0.00 0.00 2.7173 5.0539 14.1629 0.0000 0.0000 0.0000 -24.8847 1.7834 4.5763 6.8839 15.2334 48.4339 0.0032 3.0964 2.3392 0.9364 -6.1639 -17.2606 0.0000 0.0000 0.0000 11.2728 19.0934 -61.0791 -14.2505 -19.1883 72.9682 -1.5031 13.1429 -22.4642 -0.0082 0.5843 -1.6057 1.8439 -3.5899 8.0258 5.3962 -4.2169 -2.9169 5.2739 -2.0144 -7.3095 3.8801 2.3448 -11.1348 -7.4460 3.3097 7.6148 -2.6960 1.3217 4.2882 0.0000 -0.0000 0.0000 -71.4522 -40.8004 29.5002 35.5868 -45.2266 -15.2284 -0.0000 0.0000 -36.0853 21.4604 -11.3851 -4.4373 -7.1250 0.0000 -0.0000 -3.9756 17.7889 2.5772 0.0000 -0.0000 0.0000 78.4882 -22.7118 -7.3616 -9.8686 16.5337 -1.4373 0.0000 0.0000 8.9165 -18.5802 -29.2909 9.3393 7.1250 -0.0000 -0.0000 14.3277 -60.0241 -5.3179
0.00 0.00 0.00 0.0300 3.8129 11.2760 0.0000 0.0000 0.0000 -22.0913 -4.5172 -18.8101 12.3339 18.5283 67.0434 0.7212 -5.9317 -15.1367 0.8145 -5.7591 -16.0872 0.0000 0.0000 0.0000 20.9849 15.4123 -38.7516 -10.3496 -17.6018 60.6505 -2.0834 16.8984 -26.8297 -0.0002 -0.0858 0.2358 3.0850 -1.0773 6.9581 5.4320 -0.8001 -2.5660 4.0806 -0.3951 -6.5776 2.6019 0.7673 -8.9710 -6.4174 1.4799 11.2036 -2.3173 0.4278 4.9009 0.0000 0.0000 0.0000 -88.2408 -15.6670 27.6605 17.7670 -27.8578 -4.4398 -0.0000 0.0000 -23.5589 23.9255 -13.7208 -6.0074 -7.1250 0.0000 -0.0000 -2.3775 15.0336 1.6809 0.0000 0.0000 0.0000 79.8858 0.6460 15.4810 -12.9408 21.2005 -2.4318 0.0000 -0.0000 -5.7387 -28.5262 -33.2780 16.6070 7.1250 -0.0000 -0.0000 5.2366 -66.6704 -2.7378
0.00 0.00 0.00 -3.3067 -0.6200 9.2652 0.0000 0.0000 0.0000 -15.0858 -10.2060 -35.9209 9.1124 16.8795 56.4781 1.4855 -6.7647 -21.8246 0.5249 -4.6429 -12.8927 0.0000 0.0000 0.0000 27.2156 7.2852 -19.3815 -5.9890 -14.4177 44.9375 -0.1839 22.3365 -17.0708 -0.0007 0.1677 -0.4608 4.7771 2.8181 4.7212 4.7291 4.2938 -1.9741 1.8650 2.0614 -4.7215 0.0014 -1.1997 -8.4391 -2.6105 -1.2228 14.5427 -0.9111 -0.7818 5.7653 -0.0000 -0.0000 0.0000 -87.8537 8.0336 16.9810 8.3333 -14.0917 -1.0318 -0.0000 0.0000 -6.5063 18.8111 -7.2845 -2.4732 -7.1250 0.0000 -0.0000 -5.8315 22.3020 3.1984 -0.0000 -0.0000 0.0000 79.3703 19.3532 28.4681 -19.2287 29.7018 -5.1437 0.0000 -0.0000 -16.1363 -22.6505 -35.7367 13.6974 7.1250 -0.0000 -0.0000 14.9308 -67.3630 -8.1069
